<svg xmlns="http://www.w3.org/2000/svg" width="400" height="400" viewBox="0 0 400 400"><rect width="100%" height="100%" fill="#0f172a"/><path fill="#94a3b8" d="m112.195 175.39-2.24 4.26q-.41.7-.86 1.02t-1.12.32q-.7 0-1.53-.52-.82-.52-1.96-1.16-1.13-.63-2.66-1.15-1.52-.52-3.6-.52-1.88 0-3.28.45-1.41.45-2.36 1.26-.96.8-1.43 1.92-.47 1.13-.47 2.47 0 1.7.96 2.84.95 1.14 2.53 1.95 1.57.8 3.58 1.44 2.01.63 4.12 1.35t4.12 1.68q2.01.95 3.59 2.41 1.57 1.46 2.53 3.57.95 2.11.95 5.12 0 3.29-1.12 6.15-1.12 2.87-3.28 4.99-2.17 2.13-5.28 3.35-3.12 1.23-7.14 1.23-2.31 0-4.55-.46-2.25-.45-4.31-1.29-2.06-.83-3.87-2.01-1.81-1.17-3.21-2.61l2.64-4.32q.34-.47.88-.79.53-.32 1.13-.32.84 0 1.81.69t2.31 1.53q1.34.83 3.14 1.52 1.79.69 4.3.69 3.85 0 5.96-1.83 2.12-1.83 2.12-5.24 0-1.91-.96-3.12-.95-1.2-2.53-2.02-1.57-.83-3.58-1.4-2.01-.56-4.09-1.23t-4.09-1.61-3.58-2.45q-1.58-1.51-2.53-3.77-.96-2.26-.96-5.57 0-2.65 1.06-5.16 1.05-2.52 3.06-4.46t4.96-3.11q2.95-1.18 6.77-1.18 4.29 0 7.91 1.34 3.61 1.34 6.16 3.75m15.68 19.57v15.41q1.4 1.71 3.06 2.41t3.6.7q1.88 0 3.39-.7t2.56-2.14q1.06-1.44 1.63-3.64.56-2.19.56-5.17 0-3.02-.48-5.11-.49-2.1-1.39-3.4-.91-1.31-2.2-1.91-1.29-.61-2.93-.61-2.58 0-4.39 1.09-1.8 1.09-3.41 3.07m-1.11-8.54.67 3.18q2.11-2.38 4.79-3.85 2.68-1.48 6.3-1.48 2.81 0 5.14 1.17 2.33 1.18 4.02 3.41 1.69 2.22 2.62 5.49.92 3.27.92 7.49 0 3.85-1.04 7.13t-2.97 5.7q-1.92 2.41-4.65 3.77-2.73 1.35-6.12 1.35-2.88 0-4.92-.89-2.04-.88-3.65-2.46v14.07h-8.28v-45.59h5.06q1.61 0 2.11 1.51m37.42 11.72h15.61q0-1.61-.45-3.03t-1.36-2.5q-.9-1.07-2.29-1.69t-3.23-.62q-3.59 0-5.65 2.05-2.06 2.04-2.63 5.79m21.11 4.99h-21.28q.21 2.65.94 4.58.74 1.92 1.95 3.18 1.2 1.25 2.86 1.87t3.67.62 3.46-.47q1.46-.46 2.55-1.03t1.91-1.04 1.59-.47q1.04 0 1.54.77l2.38 3.01q-1.37 1.61-3.08 2.7t-3.57 1.74q-1.86.66-3.78.92-1.93.27-3.74.27-3.58 0-6.67-1.19-3.08-1.19-5.36-3.51-2.27-2.33-3.58-5.77-1.31-3.43-1.31-7.95 0-3.52 1.14-6.62t3.27-5.39q2.13-2.3 5.19-3.64 3.07-1.34 6.92-1.34 3.25 0 6 1.04 2.74 1.04 4.72 3.03 1.98 2 3.1 4.89 1.12 2.9 1.12 6.62 0 1.88-.4 2.53t-1.54.65m26.29 7.27v-5.79q-3.58.16-6.03.62-2.44.45-3.92 1.15-1.47.71-2.11 1.64-.63.94-.63 2.05 0 2.17 1.29 3.11t3.36.94q2.55 0 4.41-.92t3.63-2.8m-17.48-18.05-1.48-2.65q5.93-5.43 14.27-5.43 3.02 0 5.4.99t4.02 2.75 2.49 4.2q.86 2.45.86 5.36v21.71h-3.75q-1.18 0-1.81-.35-.64-.35-1.01-1.43l-.74-2.47q-1.3 1.17-2.54 2.06-1.24.88-2.58 1.49-1.34.6-2.87.92-1.52.32-3.36.32-2.18 0-4.02-.59t-3.18-1.76-2.08-2.91q-.74-1.75-.74-4.06 0-1.3.44-2.59.43-1.29 1.42-2.47.99-1.17 2.56-2.21 1.58-1.04 3.87-1.81 2.3-.77 5.35-1.25 3.04-.49 6.96-.59v-2.01q0-3.45-1.47-5.11t-4.25-1.66q-2.01 0-3.34.47-1.32.47-2.33 1.06-1 .59-1.82 1.05-.82.47-1.83.47-.87 0-1.47-.45t-.97-1.05m33.33-22.85h8.27v28.51h1.55q.83 0 1.32-.22.48-.22.99-.89l8.54-10.55q.54-.7 1.19-1.07t1.69-.37h7.57l-10.69 12.76q-1.13 1.51-2.47 2.31.7.51 1.25 1.18t1.06 1.44l11.45 16.68h-7.47q-.97 0-1.67-.32t-1.17-1.15l-8.78-13.04q-.47-.77-.97-1-.5-.24-1.51-.24h-1.88v15.75h-8.27zm42.34 28.64h15.61q0-1.61-.45-3.03t-1.35-2.5q-.91-1.07-2.3-1.69t-3.23-.62q-3.59 0-5.65 2.05-2.06 2.04-2.63 5.79m21.11 4.99h-21.27q.2 2.65.93 4.58.74 1.92 1.95 3.18 1.2 1.25 2.86 1.87t3.67.62 3.47-.47q1.45-.46 2.54-1.03t1.91-1.04 1.59-.47q1.04 0 1.54.77l2.38 3.01q-1.37 1.61-3.08 2.7t-3.57 1.74q-1.86.66-3.78.92-1.93.27-3.74.27-3.58 0-6.66-1.19-3.09-1.19-5.36-3.51-2.28-2.33-3.59-5.77-1.3-3.43-1.3-7.95 0-3.52 1.13-6.62 1.14-3.1 3.27-5.39 2.13-2.3 5.19-3.64 3.07-1.34 6.92-1.34 3.25 0 6 1.04 2.74 1.04 4.72 3.03 1.98 2 3.1 4.89 1.12 2.9 1.12 6.62 0 1.88-.4 2.53t-1.54.65m15.44-16.14.5 3.88q1.61-3.08 3.82-4.84t5.23-1.76q2.38 0 3.82 1.04l-.54 6.2q-.16.6-.48.85t-.86.25q-.5 0-1.49-.16-.99-.17-1.92-.17-1.38 0-2.45.4t-1.93 1.16q-.85.75-1.5 1.82-.66 1.07-1.23 2.45v21.17h-8.27v-34.37h4.86q1.27 0 1.77.45t.67 1.63"/></svg>