<svg xmlns="http://www.w3.org/2000/svg" width="400" height="400" viewBox="0 0 400 400"><rect width="100%" height="100%" fill="#475569"/><path fill="#f1f5f9" d="M85.77 178.77v33.98h-6.35v-33.98zm12.47 33.98h-5.8v-24.11h3.55q1.13 0 1.48 1.06l.38 1.78q.63-.7 1.32-1.29.7-.59 1.48-1.01.79-.42 1.7-.67.9-.25 1.98-.25 2.28 0 3.75 1.24 1.47 1.23 2.2 3.27.56-1.19 1.41-2.05.84-.86 1.85-1.4t2.15-.8 2.29-.26q2 0 3.55.61t2.61 1.79 1.61 2.87.55 3.87v15.35h-5.8V197.4q0-2.3-1.01-3.46-1.01-1.17-2.96-1.17-.9 0-1.66.31t-1.34.88q-.57.58-.9 1.45t-.33 1.99v15.35h-5.83V197.4q0-2.42-.98-3.52-.97-1.11-2.85-1.11-1.27 0-2.36.63-1.1.62-2.04 1.7zm46.3-6.23v-4.06q-2.52.11-4.23.43-1.72.32-2.75.81-1.03.5-1.48 1.15-.45.66-.45 1.44 0 1.53.91 2.18.9.66 2.36.66 1.79 0 3.09-.65 1.3-.64 2.55-1.96m-12.27-12.66-1.03-1.86q4.16-3.81 10.01-3.81 2.11 0 3.78.7 1.67.69 2.82 1.92 1.15 1.24 1.75 2.95.6 1.72.6 3.76v15.23h-2.63q-.82 0-1.27-.25-.44-.24-.7-1l-.52-1.73q-.92.82-1.79 1.44t-1.81 1.05q-.94.42-2 .64-1.07.23-2.37.23-1.52 0-2.82-.42-1.29-.41-2.23-1.23t-1.46-2.04q-.51-1.23-.51-2.85 0-.91.3-1.82.31-.9 1-1.73.69-.82 1.8-1.55 1.1-.72 2.71-1.27 1.61-.54 3.75-.88t4.89-.41v-1.41q0-2.42-1.03-3.58-1.04-1.17-2.99-1.17-1.41 0-2.34.33t-1.63.74q-.71.42-1.28.74-.58.33-1.28.33-.61 0-1.04-.31-.42-.32-.68-.74m32.2 6.25q1.08 0 1.88-.3.8-.29 1.33-.81.52-.51.79-1.24t.27-1.6q0-1.79-1.06-2.83-1.07-1.05-3.21-1.05t-3.21 1.05q-1.07 1.04-1.07 2.83 0 .85.27 1.57.27.73.8 1.26t1.34.82q.81.3 1.87.3m6.55 13.72q0-.7-.42-1.15t-1.15-.69q-.73-.25-1.7-.37-.98-.12-2.07-.17-1.1-.06-2.26-.11t-2.27-.19q-.96.54-1.56 1.27t-.6 1.69q0 .64.32 1.19t1.01.95 1.8.62q1.1.23 2.7.23 1.62 0 2.8-.25 1.17-.25 1.94-.68.76-.44 1.11-1.03.35-.6.35-1.31m-1.15-24.37h6.93v2.16q0 1.04-1.24 1.27l-2.16.4q.49 1.25.49 2.73 0 1.78-.72 3.23-.71 1.44-1.98 2.46-1.27 1.01-3 1.56t-3.72.55q-.71 0-1.37-.07-.65-.07-1.29-.19-1.13.68-1.13 1.53 0 .73.67 1.07t1.78.48q1.1.14 2.51.18 1.41.03 2.89.15t2.89.41 2.52.93q1.1.63 1.77 1.73.67 1.09.67 2.8 0 1.6-.79 3.11-.78 1.5-2.27 2.68-1.5 1.17-3.67 1.89-2.17.71-4.95.71-2.72 0-4.74-.53-2.03-.52-3.37-1.41-1.33-.88-1.99-2.03t-.66-2.39q0-1.7 1.02-2.84t2.81-1.82q-.96-.49-1.53-1.31-.56-.83-.56-2.17 0-.54.2-1.11.2-.58.59-1.14.38-.57.97-1.07.59-.51 1.39-.91-1.84-.98-2.88-2.63-1.05-1.64-1.05-3.85 0-1.79.72-3.23.72-1.45 2-2.47t3.03-1.56 3.82-.54q1.55 0 2.91.31 1.36.32 2.49.93m15.18 8.46H196q0-1.13-.31-2.13-.32-.99-.95-1.75-.64-.75-1.61-1.18-.98-.44-2.27-.44-2.52 0-3.96 1.44-1.45 1.43-1.85 4.06m14.81 3.5h-14.92q.14 1.86.65 3.21.52 1.35 1.37 2.23.84.88 2.01 1.32 1.16.43 2.57.43t2.43-.32q1.02-.33 1.79-.73.76-.4 1.34-.73.57-.33 1.11-.33.73 0 1.08.54l1.67 2.11q-.96 1.13-2.16 1.9-1.2.76-2.5 1.22-1.31.46-2.66.64-1.35.19-2.62.19-2.51 0-4.67-.83-2.17-.84-3.76-2.47-1.6-1.63-2.52-4.04t-.92-5.58q0-2.47.8-4.64.8-2.18 2.3-3.79 1.49-1.61 3.64-2.55t4.85-.94q2.28 0 4.21.73 1.92.73 3.31 2.13t2.17 3.43q.79 2.03.79 4.64 0 1.32-.28 1.77-.28.46-1.08.46m39.48-17.62h-15.09v9.42h11.89v4.87h-11.89v9.61h15.09v5.05h-21.43v-33.98h21.43zm9.8 6.3.35 2.72q1.13-2.16 2.68-3.39 1.55-1.24 3.67-1.24 1.66 0 2.67.73l-.37 4.35q-.12.42-.34.6-.23.17-.6.17-.35 0-1.05-.11-.69-.12-1.35-.12-.96 0-1.71.28-.76.28-1.36.81-.59.53-1.05 1.28t-.86 1.72v14.85h-5.81v-24.11h3.41q.9 0 1.25.32.35.31.47 1.14m17.53 0 .35 2.72q1.13-2.16 2.68-3.39 1.55-1.24 3.67-1.24 1.66 0 2.68.73l-.38 4.35q-.12.42-.34.6-.22.17-.6.17-.35 0-1.05-.11-.69-.12-1.35-.12-.96 0-1.71.28-.76.28-1.35.81-.6.53-1.06 1.28t-.86 1.72v14.85h-5.8v-24.11h3.4q.9 0 1.25.32.35.31.47 1.14m23.08-1.84q2.67 0 4.87.87t3.76 2.47 2.41 3.9.85 5.15q0 2.86-.85 5.17-.85 2.3-2.41 3.92t-3.76 2.49-4.87.87q-2.71 0-4.92-.87-2.2-.87-3.77-2.49-1.56-1.62-2.42-3.92-.86-2.31-.86-5.17 0-2.85.86-5.15t2.42-3.9q1.57-1.6 3.77-2.47 2.21-.87 4.92-.87m0 20.38q3 0 4.45-2.02 1.44-2.02 1.44-5.93 0-3.9-1.44-5.94-1.45-2.05-4.45-2.05-3.06 0-4.53 2.06t-1.47 5.93q0 3.88 1.47 5.91 1.47 2.04 4.53 2.04m21.45-18.54.35 2.72q1.13-2.16 2.68-3.39 1.55-1.24 3.67-1.24 1.67 0 2.68.73l-.38 4.35q-.12.42-.34.6-.22.17-.6.17-.35 0-1.04-.11-.7-.12-1.36-.12-.96 0-1.71.28t-1.35.81-1.06 1.28-.86 1.72v14.85h-5.8v-24.11h3.41q.89 0 1.24.32.35.31.47 1.14"/></svg>