<svg xmlns="http://www.w3.org/2000/svg" width="400" height="400" viewBox="0 0 400 400"><rect width="100%" height="100%" fill="#1e293b"/><path fill="#cbd5e1" d="M118.09 173.715h9.98v53.5h-9.98v-23.38H92.96v23.38h-9.99v-53.5h9.99v23.01h25.13zm37.25 14.95q4.22 0 7.68 1.37 3.46 1.36 5.92 3.88t3.79 6.14q1.34 3.63 1.34 8.11 0 4.51-1.34 8.14-1.33 3.62-3.79 6.17-2.46 2.56-5.92 3.93-3.46 1.36-7.68 1.36-4.25 0-7.73-1.36-3.48-1.37-5.94-3.93-2.46-2.55-3.81-6.17-1.35-3.63-1.35-8.14 0-4.48 1.35-8.11 1.35-3.62 3.81-6.14t5.94-3.88q3.48-1.37 7.73-1.37m0 32.08q4.74 0 7.02-3.19 2.27-3.18 2.27-9.32t-2.27-9.36q-2.28-3.22-7.02-3.22-4.81 0-7.12 3.24-2.31 3.23-2.31 9.34 0 6.1 2.31 9.3 2.31 3.21 7.12 3.21m42.52-32.08q4.21 0 7.67 1.37 3.46 1.36 5.92 3.88t3.8 6.14q1.33 3.63 1.33 8.11 0 4.51-1.33 8.14-1.34 3.62-3.8 6.17-2.46 2.56-5.92 3.93-3.46 1.36-7.67 1.36-4.26 0-7.74-1.36-3.47-1.37-5.93-3.93-2.47-2.55-3.82-6.17-1.35-3.63-1.35-8.14 0-4.48 1.35-8.11 1.35-3.62 3.82-6.14 2.46-2.52 5.93-3.88 3.48-1.37 7.74-1.37m0 32.08q4.73 0 7.01-3.19 2.27-3.18 2.27-9.32t-2.27-9.36q-2.28-3.22-7.01-3.22-4.81 0-7.13 3.24-2.31 3.23-2.31 9.34 0 6.1 2.31 9.3 2.32 3.21 7.13 3.21m49.54-4.78v-17.02q-1.55-1.88-3.39-2.66-1.83-.78-3.94-.78-2.07 0-3.73.78-1.67.78-2.85 2.35-1.19 1.57-1.82 3.99-.62 2.43-.62 5.72 0 3.33.53 5.64.54 2.32 1.54 3.78t2.44 2.11q1.44.64 3.22.64 2.85 0 4.85-1.18 1.99-1.18 3.77-3.37m0-43.73h9.14v54.98h-5.59q-1.81 0-2.29-1.66l-.78-3.67q-2.29 2.63-5.27 4.26-2.98 1.62-6.94 1.62-3.11 0-5.7-1.29t-4.46-3.76q-1.86-2.46-2.88-6.08-1.02-3.63-1.02-8.29 0-4.22 1.15-7.84 1.14-3.63 3.29-6.29 2.15-2.67 5.14-4.17 3-1.49 6.74-1.49 3.18 0 5.44.99 2.25 1 4.03 2.71zm18.46 17.02h9.18v37.96h-9.18zm10.44-11.06q0 1.18-.48 2.22-.49 1.03-1.28 1.81-.8.78-1.87 1.24t-2.29.46q-1.19 0-2.24-.46-1.06-.46-1.83-1.24-.78-.78-1.24-1.81-.47-1.04-.47-2.22 0-1.23.47-2.3.46-1.07 1.24-1.85.77-.78 1.83-1.24 1.05-.46 2.24-.46 1.22 0 2.29.46t1.87 1.24q.79.78 1.28 1.85.48 1.07.48 2.3m15.28 25.67h17.24q0-1.77-.5-3.35-.5-1.57-1.5-2.75-1-1.19-2.53-1.87-1.54-.68-3.57-.68-3.96 0-6.24 2.25-2.27 2.26-2.9 6.4m23.31 5.52h-23.5q.22 2.92 1.04 5.05.81 2.12 2.14 3.51 1.34 1.39 3.17 2.07 1.83.69 4.05.69t3.83-.52 2.81-1.15 2.11-1.14q.91-.52 1.76-.52 1.14 0 1.7.85l2.63 3.33q-1.52 1.78-3.41 2.98-1.88 1.2-3.94 1.92-2.05.72-4.18 1.02-2.13.29-4.12.29-3.96 0-7.37-1.31-3.4-1.31-5.92-3.88-2.51-2.57-3.96-6.37-1.44-3.79-1.44-8.78 0-3.89 1.26-7.31t3.61-5.96q2.35-2.53 5.73-4.01 3.39-1.48 7.64-1.48 3.59 0 6.62 1.14 3.04 1.15 5.22 3.35t3.42 5.4 1.24 7.31q0 2.07-.44 2.79-.44.73-1.7.73"/></svg>