<svg xmlns="http://www.w3.org/2000/svg" width="400" height="400" viewBox="0 0 400 400"><rect width="100%" height="100%" fill="#1e293b"/><path fill="#cbd5e1" d="M101.99 200.99h12.06q4.44 0 7.74-1.11t5.49-3.18 3.27-5.04 1.08-6.63q0-3.48-1.08-6.3t-3.24-4.8-5.46-3.03-7.8-1.05h-12.06zm-16.14-43.62h28.2q8.7 0 15.06 2.04t10.5 5.7 6.15 8.76 2.01 11.16q0 6.3-2.1 11.55t-6.3 9.03-10.53 5.88-14.79 2.1h-12.06v30.54H85.85zm99.18 24.24q6.84 0 12.45 2.22t9.6 6.3 6.15 9.96 2.16 13.14q0 7.32-2.16 13.2t-6.15 10.02-9.6 6.36-12.45 2.22q-6.9 0-12.54-2.22t-9.63-6.36-6.18-10.02-2.19-13.2q0-7.26 2.19-13.14t6.18-9.96 9.63-6.3 12.54-2.22m0 52.02q7.68 0 11.37-5.16t3.69-15.12-3.69-15.18-11.37-5.22q-7.8 0-11.55 5.25t-3.75 15.15 3.75 15.09 11.55 5.19m41.88-78.66h14.82v89.16h-14.82zm56.88 26.64q6.84 0 12.45 2.22t9.6 6.3 6.15 9.96 2.16 13.14q0 7.32-2.16 13.2t-6.15 10.02-9.6 6.36-12.45 2.22q-6.9 0-12.54-2.22t-9.63-6.36-6.18-10.02-2.19-13.2q0-7.26 2.19-13.14t6.18-9.96 9.63-6.3 12.54-2.22m0 52.02q7.68 0 11.37-5.16t3.69-15.12-3.69-15.18-11.37-5.22q-7.8 0-11.55 5.25t-3.75 15.15 3.75 15.09 11.55 5.19"/></svg>