<svg xmlns="http://www.w3.org/2000/svg" width="400" height="400" viewBox="0 0 400 400"><rect width="100%" height="100%" fill="#475569"/><path fill="#f1f5f9" d="M98.63 216.51h28.61v10.99H85.31v-71.58h13.32zm63.01-2.13v-8.56q-5.3.25-8.91.91-3.61.67-5.79 1.71t-3.12 2.43q-.94 1.38-.94 3.02 0 3.21 1.9 4.6 1.91 1.39 4.98 1.39 3.76 0 6.51-1.36 2.75-1.37 5.37-4.14M135.8 187.7l-2.18-3.91q8.76-8.02 21.09-8.02 4.45 0 7.97 1.46 3.51 1.46 5.94 4.06 2.42 2.6 3.69 6.21 1.26 3.62 1.26 7.92v32.08h-5.54q-1.74 0-2.68-.52t-1.48-2.1l-1.09-3.67q-1.93 1.74-3.76 3.05-1.84 1.31-3.82 2.2t-4.23 1.36-4.97.47q-3.22 0-5.94-.86-2.72-.87-4.7-2.6-1.98-1.74-3.07-4.31t-1.09-5.99q0-1.93.64-3.84.64-1.9 2.1-3.63 1.46-1.74 3.79-3.27 2.33-1.54 5.72-2.67 3.39-1.14 7.89-1.86 4.51-.72 10.3-.87v-2.97q0-5.09-2.18-7.54-2.18-2.46-6.28-2.46-2.97 0-4.93.7-1.96.69-3.44 1.56l-2.7 1.56q-1.21.69-2.7.69-1.28 0-2.17-.67t-1.44-1.56m61.48 39.8h-12.23v-50.79h7.48q2.37 0 3.12 2.23l.79 3.76q1.33-1.48 2.79-2.72 1.47-1.24 3.12-2.13 1.66-.89 3.57-1.41 1.9-.52 4.18-.52 4.8 0 7.9 2.6 3.09 2.6 4.62 6.9 1.19-2.52 2.97-4.33 1.79-1.8 3.91-2.94 2.13-1.14 4.53-1.68 2.4-.55 4.83-.55 4.21 0 7.47 1.29 3.27 1.28 5.5 3.76t3.39 6.04 1.16 8.17v32.32h-12.22v-32.32q0-4.85-2.13-7.3-2.13-2.46-6.24-2.46-1.88 0-3.49.65-1.61.64-2.82 1.85-1.21 1.22-1.91 3.05-.69 1.83-.69 4.21v32.32H214.6v-32.32q0-5.1-2.05-7.43t-6.01-2.33q-2.68 0-4.98 1.32-2.3 1.31-4.28 3.59zm82.91-35.94v22.77q2.08 2.53 4.53 3.57t5.32 1.04q2.77 0 5-1.04t3.79-3.17 2.4-5.37.84-7.65q0-4.45-.72-7.55-.71-3.09-2.05-5.02t-3.24-2.82q-1.91-.9-4.33-.9-3.82 0-6.49 1.61t-5.05 4.53m-1.63-12.62.99 4.7q3.12-3.51 7.08-5.69t9.3-2.18q4.16 0 7.6 1.73 3.44 1.74 5.94 5.03t3.86 8.12q1.36 4.82 1.36 11.06 0 5.69-1.53 10.54-1.54 4.85-4.38 8.42-2.85 3.56-6.88 5.57-4.04 2-9.04 2-4.25 0-7.27-1.31t-5.4-3.64v20.79h-12.22v-67.37h7.47q2.38 0 3.12 2.23"/></svg>