<svg xmlns="http://www.w3.org/2000/svg" width="400" height="400" viewBox="0 0 400 400"><rect width="100%" height="100%" fill="#0f172a"/><path fill="#94a3b8" d="M139.37 199.675q0 6.84-2.28 12.56t-6.41 9.84q-4.13 4.13-9.93 6.41-5.81 2.28-12.9 2.28H84.16v-62.18h23.69q7.09 0 12.9 2.3 5.8 2.3 9.93 6.41t6.41 9.82q2.28 5.72 2.28 12.56m-11.87 0q0-5.12-1.36-9.18-1.35-4.06-3.91-6.88t-6.19-4.32q-3.63-1.51-8.19-1.51H95.76v43.78h12.09q4.56 0 8.19-1.51 3.63-1.5 6.19-4.32t3.91-6.88q1.36-4.06 1.36-9.18m29.76-10.36.64 4.99q2.06-3.96 4.9-6.22t6.71-2.26q3.05 0 4.9 1.34l-.69 7.95q-.21.78-.62 1.1t-1.1.32q-.64 0-1.91-.21-1.27-.22-2.47-.22-1.76 0-3.14.52-1.38.51-2.47 1.48-1.1.97-1.94 2.34-.84 1.38-1.57 3.14v27.18h-10.62v-44.12h6.24q1.63 0 2.28.58.64.58.86 2.09m42.22-3.36q4.9 0 8.92 1.59 4.02 1.6 6.88 4.52t4.41 7.14q1.55 4.21 1.55 9.41 0 5.25-1.55 9.46-1.55 4.22-4.41 7.19-2.86 2.96-6.88 4.55-4.02 1.6-8.92 1.6-4.94 0-8.99-1.6-4.04-1.59-6.9-4.55-2.86-2.97-4.43-7.19-1.57-4.21-1.57-9.46 0-5.2 1.57-9.41 1.57-4.22 4.43-7.14t6.9-4.52q4.05-1.59 8.99-1.59m0 37.28q5.51 0 8.15-3.69 2.64-3.7 2.64-10.84t-2.64-10.88-8.15-3.74q-5.59 0-8.28 3.76-2.68 3.77-2.68 10.86 0 7.1 2.68 10.82 2.69 3.71 8.28 3.71m39.09-34.65.73 3.48q1.33-1.33 2.82-2.47 1.48-1.14 3.13-1.94 1.66-.79 3.55-1.24 1.89-.46 4.13-.46 3.61 0 6.41 1.23 2.79 1.22 4.66 3.44 1.87 2.21 2.84 5.29.97 3.07.97 6.77v28.08h-10.62v-28.08q0-4.04-1.85-6.26-1.85-2.21-5.63-2.21-2.76 0-5.16 1.25-2.41 1.24-4.56 3.39v31.91h-10.62v-44.12h6.49q2.06 0 2.71 1.94m47.69 15.05h20.03q0-2.07-.58-3.89-.58-1.83-1.74-3.21-1.16-1.37-2.94-2.17-1.79-.8-4.15-.8-4.6 0-7.25 2.63-2.64 2.62-3.37 7.44m27.09 6.4h-27.31q.26 3.4 1.2 5.87.95 2.48 2.5 4.09t3.67 2.41q2.13.79 4.71.79t4.45-.6 3.27-1.33 2.45-1.34q1.06-.6 2.05-.6 1.33 0 1.97.99l3.06 3.87q-1.77 2.06-3.96 3.46t-4.58 2.24-4.86 1.18q-2.47.35-4.79.35-4.6 0-8.56-1.53t-6.88-4.52-4.6-7.39q-1.68-4.41-1.68-10.22 0-4.51 1.46-8.49 1.47-3.98 4.2-6.92 2.73-2.95 6.66-4.67 3.94-1.72 8.88-1.72 4.17 0 7.7 1.34 3.52 1.33 6.06 3.89t3.98 6.28 1.44 8.49q0 2.41-.52 3.25-.51.83-1.97.83"/></svg>