<svg xmlns="http://www.w3.org/2000/svg" width="400" height="400" viewBox="0 0 400 400"><rect width="100%" height="100%" fill="#1e293b"/><path fill="#cbd5e1" d="M125 172.275v8.62h-17v47.77H97.51v-47.77H80.5v-8.62zm5.58 36.85v-8.03h20.2v8.03zm63.57-31.55-2.61 4.95q-.47.82-1 1.19-.52.37-1.3.37-.82 0-1.78-.6-.95-.61-2.28-1.35t-3.1-1.34q-1.77-.61-4.19-.61-2.19 0-3.82.53-1.64.53-2.75 1.46-1.12.94-1.66 2.24-.55 1.31-.55 2.87 0 1.99 1.11 3.32 1.12 1.32 2.95 2.26 1.83.93 4.17 1.67 2.34.75 4.8 1.58 2.46.84 4.8 1.95 2.34 1.12 4.17 2.81 1.83 1.7 2.94 4.16 1.11 2.45 1.11 5.96 0 3.82-1.3 7.16-1.31 3.33-3.82 5.81-2.52 2.48-6.15 3.9-3.62 1.42-8.3 1.42-2.69 0-5.31-.52-2.61-.53-5.01-1.5-2.4-.98-4.5-2.34-2.11-1.37-3.75-3.05l3.08-5.03q.39-.54 1.02-.91.62-.37 1.32-.37.98 0 2.11.8 1.13.79 2.69 1.77t3.65 1.77q2.08.8 5.01.8 4.48 0 6.94-2.12 2.46-2.13 2.46-6.1 0-2.23-1.11-3.63-1.12-1.41-2.95-2.36-1.83-.96-4.17-1.62t-4.76-1.44-4.76-1.88q-2.34-1.09-4.17-2.84-1.83-1.76-2.95-4.39-1.11-2.63-1.11-6.49 0-3.08 1.23-6.01 1.23-2.92 3.57-5.19 2.34-2.26 5.77-3.62 3.43-1.37 7.88-1.37 4.99 0 9.2 1.56 4.22 1.56 7.18 4.37m18.25-6.86v22.23q2.34-2.19 5.15-3.55 2.81-1.37 6.59-1.37 3.28 0 5.81 1.11 2.54 1.12 4.23 3.12 1.7 2.01 2.58 4.8t.88 6.14v25.47H228v-25.47q0-3.66-1.67-5.67-1.68-2.01-5.11-2.01-2.5 0-4.68 1.13-2.19 1.13-4.14 3.08v28.94h-9.63v-57.95zm34.67 17.94h9.68v40.01h-9.68zm11-11.66q0 1.24-.51 2.33-.5 1.1-1.34 1.92t-1.97 1.3q-1.13.49-2.42.49-1.25 0-2.36-.49-1.11-.48-1.93-1.3t-1.31-1.92q-.48-1.09-.48-2.33 0-1.29.48-2.42.49-1.13 1.31-1.95t1.93-1.31 2.36-.49q1.29 0 2.42.49t1.97 1.31 1.34 1.95q.51 1.13.51 2.42m17.01 14.07.58 4.53q1.87-3.59 4.45-5.64 2.57-2.05 6.08-2.05 2.77 0 4.45 1.21l-.63 7.22q-.19.7-.56.99-.37.3-1 .3-.58 0-1.73-.2-1.15-.19-2.25-.19-1.59 0-2.84.46-1.25.47-2.25 1.35-.99.88-1.75 2.12-.76 1.25-1.42 2.85v24.65h-9.64v-40.01h5.66q1.48 0 2.07.52.58.53.78 1.89m33.93 38.22q-5.23 0-8.02-2.94t-2.79-8.13v-22.35h-4.09q-.78 0-1.33-.51-.54-.5-.54-1.52v-3.82l6.43-1.05 2.03-10.92q.19-.78.74-1.21t1.4-.43h5v12.6h10.68v6.86h-10.68v21.68q0 1.88.91 2.93.92 1.05 2.52 1.05.89 0 1.5-.21.6-.22 1.05-.45t.8-.45q.35-.21.7-.21.43 0 .71.21.27.22.58.64l2.89 4.69q-2.11 1.75-4.84 2.65-2.73.89-5.65.89"/></svg>